<svg viewBox="0 0 374 292" xmlns="http://www.w3.org/2000/svg" fill-rule="evenodd" clip-rule="evenodd" stroke-linejoin="round" stroke-miterlimit="2"><path d="M298.598 51.483c-4.668-7.118-15.862-8.496-23.512-4.431-7.692 4.087-12.53 12.019-8.787 19.492a89.97 89.97 0 019.559 40.424c-.002 51.329-43.092 92.94-96.25 92.94-53.157 0-96.246-41.611-96.248-92.94.002-51.328 43.091-92.94 96.248-92.94 32.036 0 56.236 15.364 68.389 27.518a4.428 4.428 0 006.677-5.787C241.17 17.759 210.876 0 179.608 0 116.046 0 46.347 42.727 46.347 115.495c0 46.472 39.7 98.442 133.261 98.442 63.563 0 133.262-42.729 133.262-115.497 0-15.767-4.578-32.167-14.272-46.957M28.694 279.399c0-4.834-3.326-7.849-7.537-8.577v-.104c3.586-1.195 6.029-3.898 6.029-7.953 0-7.433-6.809-9.461-12.527-9.461H0v36.804h14.659c7.017 0 14.035-2.703 14.035-10.709m-10.083-15.438c0 2.598-1.924 4.002-5.252 4.002H8.577v-7.589h4.367c3.743 0 5.667 1.092 5.667 3.587m1.194 14.606c0 3.586-3.429 4.368-6.236 4.368H8.577v-8.423h4.939c3.794 0 6.289.99 6.289 4.055m45.951-2.339v-22.924h-8.889v22.198c0 3.95-1.87 7.587-6.912 7.587-4.991 0-6.915-3.637-6.915-7.587v-22.198h-8.836v22.924c0 8.838 6.03 14.867 15.698 14.867 9.615 0 15.854-6.029 15.854-14.867m41.532-4.627c0-13.931-10.605-18.297-21.053-18.297H72.929v36.804h13.723c10.135 0 20.636-5.563 20.636-18.507m-9.253 0c0 8.213-5.872 10.813-12.215 10.813h-4.209v-21.519h4.416c6.136 0 12.008 2.442 12.008 10.706m53.488-.051c0-11.799-8.524-19.233-20.065-19.233-11.487 0-20.011 7.434-20.011 19.233 0 11.643 8.524 19.545 20.011 19.545 11.541 0 20.065-7.902 20.065-19.545m-9.512 0c0 6.655-4.368 11.436-10.553 11.436-6.184 0-10.499-4.781-10.499-11.436 0-6.446 4.262-11.227 10.499-11.227 6.238 0 10.553 4.781 10.553 11.227m46.574 4.678v-22.924h-8.889v22.198c0 3.95-1.87 7.587-6.912 7.587-4.991 0-6.915-3.637-6.915-7.587v-22.198h-8.836v22.924c0 8.838 6.03 14.867 15.698 14.867 9.615 0 15.854-6.029 15.854-14.867m39.558 8.785l-6.186-5.821c-1.559 2.182-4.315 3.743-7.798 3.743-6.132 0-10.448-4.576-10.448-11.281 0-6.497 4.419-11.28 10.605-11.28 2.807 0 5.768 1.092 7.431 3.379l6.031-6.03c-3.067-3.535-8.627-5.406-13.776-5.406-11.227 0-19.96 7.537-19.96 19.337 0 11.539 8.474 19.441 19.806 19.441 6.185 0 11.071-2.339 14.295-6.082m37.269 5.095v-36.804h-8.628l.207 24.017h-.156l-14.762-24.017h-10.136v36.804h8.629l-.208-24.067h.155l14.816 24.067h10.083zm45.951-18.558c0-11.799-8.526-19.233-20.065-19.233-11.488 0-20.013 7.434-20.013 19.233 0 11.643 8.525 19.545 20.013 19.545 11.539 0 20.065-7.902 20.065-19.545m-9.513 0c0 6.655-4.366 11.436-10.552 11.436-6.187 0-10.499-4.781-10.499-11.436 0-6.446 4.262-11.227 10.499-11.227 6.238 0 10.552 4.781 10.552 11.227m40.494-14.659c-3.225-2.962-7.902-4.521-12.061-4.521-6.861 0-14.242 3.377-14.242 11.539 0 6.654 4.731 9.044 9.408 10.553 4.834 1.558 7.641 2.442 7.641 5.249 0 2.963-2.392 4.003-5.095 4.003-2.91 0-6.183-1.665-7.952-3.9l-5.821 5.928c3.222 3.377 8.524 5.301 13.773 5.301 7.28 0 14.088-3.795 14.088-12.267 0-7.329-6.446-9.461-11.435-11.072-3.483-1.092-5.667-1.871-5.667-4.314 0-2.913 2.86-3.692 5.146-3.692 2.287 0 5.043 1.248 6.55 3.171l5.667-5.978zm30.719 4.004v-7.591h-29.681v7.591h10.396v29.213h8.89v-29.213h10.395z" fill="#75154d" fill-rule="nonzero"/></svg>