<svg viewBox="0 0 166 93" xmlns="http://www.w3.org/2000/svg" fill-rule="evenodd" clip-rule="evenodd" stroke-linejoin="round" stroke-miterlimit="2"><path d="M6.02 90.954c.662 0 1.232-.076 1.711-.228.479-.151.872-.365 1.179-.64.307-.275.532-.602.676-.981.143-.379.215-.796.215-1.251 0-.886-.315-1.586-.945-2.1-.63-.515-1.576-.772-2.836-.772H2.31v5.972h3.71zM2.31 77.478v5.852h3.063c.655 0 1.223-.071 1.706-.215.482-.144.881-.343 1.196-.598.316-.256.549-.565.701-.928a3.07 3.07 0 00.227-1.191c0-1.013-.303-1.753-.91-2.22-.606-.466-1.547-.7-2.824-.7H2.31zm3.159-1.831c1.053 0 1.961.104 2.723.311.762.208 1.388.503 1.879.886.49.383.851.852 1.083 1.406.231.555.347 1.179.347 1.873 0 .423-.066.828-.198 1.215a3.633 3.633 0 01-.592 1.083 4.25 4.25 0 01-.999.903 5.464 5.464 0 01-1.419.653c1.261.239 2.208.688 2.843 1.346.634.658.951 1.522.951 2.591 0 .726-.134 1.388-.401 1.986a4.246 4.246 0 01-1.173 1.544c-.514.431-1.147.764-1.897 1-.749.235-1.603.353-2.561.353H0v-17.15h5.469zM22.015 90.954c.71 0 1.344-.12 1.903-.359a4.003 4.003 0 001.418-1.006 4.39 4.39 0 00.885-1.543 6.092 6.092 0 00.306-1.975V75.647h2.309v10.424a7.82 7.82 0 01-.472 2.752 6.395 6.395 0 01-1.353 2.196 6.166 6.166 0 01-2.148 1.454c-.846.351-1.795.527-2.848.527s-2.003-.176-2.848-.527a6.228 6.228 0 01-2.154-1.454 6.333 6.333 0 01-1.359-2.196 7.82 7.82 0 01-.472-2.752V75.647h2.309v10.412c0 .718.102 1.376.305 1.975.204.598.499 1.113.886 1.543.387.431.862.768 1.424 1.012.563.243 1.199.365 1.909.365zM47.788 84.228c0 1.284-.204 2.453-.611 3.506-.407 1.053-.981 1.955-1.723 2.705a7.675 7.675 0 01-2.675 1.741c-1.041.411-2.192.617-3.452.617h-6.403v-17.15h6.403c1.26 0 2.411.206 3.452.617a7.633 7.633 0 012.675 1.747 7.839 7.839 0 011.723 2.71c.407 1.054.611 2.222.611 3.507zm-2.382 0c0-1.053-.143-1.995-.431-2.824-.287-.83-.694-1.532-1.22-2.107a5.212 5.212 0 00-1.915-1.316c-.75-.303-1.588-.455-2.513-.455h-4.081v13.392h4.081c.925 0 1.763-.152 2.513-.455a5.237 5.237 0 001.915-1.311c.526-.57.933-1.27 1.22-2.1.288-.83.431-1.771.431-2.824zM66.895 84.228c0 1.284-.204 2.463-.611 3.536-.407 1.073-.981 1.997-1.723 2.771a7.705 7.705 0 01-2.675 1.801c-1.041.427-2.192.64-3.452.64-1.261 0-2.41-.213-3.447-.64a7.718 7.718 0 01-2.669-1.801c-.742-.774-1.316-1.698-1.723-2.771-.407-1.073-.61-2.252-.61-3.536 0-1.285.203-2.463.61-3.536a8.168 8.168 0 011.723-2.777 7.748 7.748 0 012.669-1.813c1.037-.431 2.186-.646 3.447-.646 1.26 0 2.411.215 3.452.646a7.735 7.735 0 012.675 1.813 8.168 8.168 0 011.723 2.777c.407 1.073.611 2.251.611 3.536zm-2.382 0c0-1.053-.144-1.999-.431-2.836-.287-.838-.694-1.546-1.22-2.125a5.304 5.304 0 00-1.915-1.334c-.75-.311-1.588-.467-2.513-.467-.918 0-1.752.156-2.502.467-.75.311-1.39.756-1.92 1.334-.531.579-.94 1.287-1.227 2.125-.287.837-.431 1.783-.431 2.836s.144 1.996.431 2.83c.287.834.696 1.54 1.227 2.118a5.275 5.275 0 001.92 1.329c.75.307 1.584.461 2.502.461.925 0 1.763-.154 2.513-.461a5.231 5.231 0 001.915-1.329c.526-.578.933-1.284 1.22-2.118.287-.834.431-1.777.431-2.83zM76.751 90.954c.71 0 1.344-.12 1.902-.359a3.998 3.998 0 001.419-1.006 4.39 4.39 0 00.885-1.543 6.092 6.092 0 00.305-1.975V75.647h2.31v10.424a7.82 7.82 0 01-.473 2.752 6.392 6.392 0 01-1.352 2.196 6.166 6.166 0 01-2.148 1.454c-.846.351-1.795.527-2.848.527s-2.003-.176-2.849-.527a6.247 6.247 0 01-2.154-1.454 6.346 6.346 0 01-1.358-2.196 7.82 7.82 0 01-.473-2.752V75.647h2.31v10.412c0 .718.102 1.376.305 1.975.204.598.499 1.113.886 1.543.387.431.861.768 1.424 1.012.562.243 1.199.365 1.909.365zM99.699 89.254c.128 0 .239.052.335.156l.922.993a7.34 7.34 0 01-2.555 1.903c-1.002.455-2.212.682-3.632.682-1.229 0-2.346-.213-3.351-.64a7.363 7.363 0 01-2.573-1.795c-.71-.77-1.261-1.694-1.652-2.771s-.586-2.262-.586-3.554c0-1.293.203-2.477.61-3.554s.979-2.003 1.717-2.777a7.683 7.683 0 012.651-1.801c1.029-.427 2.166-.64 3.411-.64 1.221 0 2.298.195 3.231.586a8.13 8.13 0 012.465 1.592l-.766 1.065a.602.602 0 01-.185.197.532.532 0 01-.305.078c-.144 0-.319-.078-.527-.233a7.867 7.867 0 00-.814-.521 6.321 6.321 0 00-1.256-.52c-.503-.156-1.121-.234-1.855-.234-.886 0-1.695.154-2.429.461a5.302 5.302 0 00-1.897 1.334c-.531.583-.944 1.293-1.239 2.131-.295.837-.443 1.783-.443 2.836 0 1.069.154 2.022.461 2.86.307.838.726 1.546 1.257 2.124a5.29 5.29 0 001.879 1.323 5.98 5.98 0 002.339.454c.511 0 .971-.029 1.382-.089a5.63 5.63 0 001.137-.282c.347-.127.67-.289.97-.484a6.97 6.97 0 00.891-.7c.136-.12.271-.18.407-.18zM117.466 75.647v17.15h-1.161a.996.996 0 01-.461-.096 1.172 1.172 0 01-.365-.323l-9.921-12.925a15.33 15.33 0 01.048 1.125v12.219h-2.034v-17.15h1.196c.104 0 .192.006.264.018a.679.679 0 01.191.06.73.73 0 01.168.12c.055.052.115.117.179.197l9.921 12.913c-.016-.207-.03-.409-.042-.604a9.118 9.118 0 01-.018-.557V75.647h2.035zM137.614 84.228c0 1.284-.204 2.463-.611 3.536-.407 1.073-.981 1.997-1.723 2.771a7.705 7.705 0 01-2.675 1.801c-1.041.427-2.192.64-3.452.64-1.261 0-2.41-.213-3.447-.64a7.718 7.718 0 01-2.669-1.801c-.742-.774-1.316-1.698-1.723-2.771-.407-1.073-.61-2.252-.61-3.536 0-1.285.203-2.463.61-3.536a8.168 8.168 0 011.723-2.777 7.748 7.748 0 012.669-1.813c1.037-.431 2.186-.646 3.447-.646 1.26 0 2.411.215 3.452.646a7.735 7.735 0 012.675 1.813 8.168 8.168 0 011.723 2.777c.407 1.073.611 2.251.611 3.536zm-2.382 0c0-1.053-.143-1.999-.431-2.836-.287-.838-.694-1.546-1.22-2.125a5.304 5.304 0 00-1.915-1.334c-.75-.311-1.588-.467-2.513-.467-.918 0-1.751.156-2.501.467a5.352 5.352 0 00-1.921 1.334c-.531.579-.94 1.287-1.227 2.125-.287.837-.431 1.783-.431 2.836s.144 1.996.431 2.83c.287.834.696 1.54 1.227 2.118a5.279 5.279 0 001.921 1.329c.75.307 1.583.461 2.501.461.925 0 1.763-.154 2.513-.461a5.231 5.231 0 001.915-1.329c.526-.578.933-1.284 1.22-2.118.288-.834.431-1.777.431-2.83zM149.624 78.328a.89.89 0 01-.233.269.513.513 0 01-.306.09c-.135 0-.295-.068-.478-.203a8.243 8.243 0 00-.688-.449 5.56 5.56 0 00-.994-.449c-.387-.136-.855-.203-1.406-.203-.518 0-.975.069-1.37.209-.395.14-.726.329-.993.568-.268.24-.469.521-.605.844a2.688 2.688 0 00-.203 1.047c0 .479.117.876.353 1.191.235.315.546.584.933.808.387.223.826.417 1.317.58.49.164.993.333 1.508.509.514.175 1.017.373 1.507.592.491.22.93.497 1.317.832.387.335.698.746.933 1.233.236.486.353 1.085.353 1.795 0 .75-.127 1.454-.383 2.112a4.855 4.855 0 01-1.119 1.717c-.49.487-1.093.87-1.807 1.149s-1.525.419-2.435.419c-1.117 0-2.13-.201-3.04-.604a7.137 7.137 0 01-2.333-1.634l.67-1.101a.876.876 0 01.233-.221.547.547 0 01.305-.09c.104 0 .222.042.353.126.132.083.282.189.449.317.168.127.359.267.575.419.215.151.46.291.736.418.275.128.588.234.939.318.351.083.746.125 1.185.125a4.44 4.44 0 001.472-.227 3.133 3.133 0 001.095-.64 2.79 2.79 0 00.688-.988c.159-.383.239-.809.239-1.28 0-.519-.117-.944-.353-1.275a2.915 2.915 0 00-.927-.831 6.431 6.431 0 00-1.317-.569c-.494-.155-.997-.315-1.508-.479a15.932 15.932 0 01-1.507-.568 4.862 4.862 0 01-1.317-.838 3.846 3.846 0 01-.927-1.286c-.236-.515-.353-1.151-.353-1.909 0-.606.117-1.193.353-1.759a4.48 4.48 0 011.029-1.508 5.022 5.022 0 011.663-1.053c.659-.263 1.414-.395 2.268-.395.958 0 1.829.151 2.615.455a6.173 6.173 0 012.076 1.316l-.562 1.101zM165.356 77.598h-5.553v15.199h-2.31V77.598h-5.564v-1.951h13.427v1.951zM79.408.074c-1.963.2-3.693.474-5.032.791l-1.248.299c-2.661.632-4.84 1.414-7.402 2.678-.59.291-2.037 1.04-2.744 1.422-2.404 1.306-5.863 3.826-7.402 5.406-.225.233-.599.599-.832.807-.532.482-1.671 1.763-2.254 2.545-.249.332-.482.623-.523.64-.134.092-1.78 2.537-1.922 2.878-.05.116-.141.266-.208.332-.124.142-.465.732-.673 1.165a9.235 9.235 0 01-.25.499l-.208.416c-.05.116-.199.415-.332.673-.133.258-.242.516-.242.566 0 .058-.149.407-.332.79-.183.374-.333.765-.333.873 0 .1-.1.366-.216.599-.208.424-.433 1.106-.599 1.863-.05.224-.15.657-.216.956-.433 1.921-.549 2.603-.566 3.369-.025 1.106.009 3.551.05 3.992.083.89.3 2.395.374 2.644.05.15.125.508.183.807.109.624.774 2.736 1.198 3.776a21.814 21.814 0 001.988 3.751c.424.64.806 1.231.848 1.305.233.425 2.528 2.945 3.402 3.726a41.33 41.33 0 002.37 1.913c.274.208.607.449.732.549.125.1.341.241.474.316.291.158.491.275.832.508.324.216.657.407 1.097.623.192.092.375.2.391.241.025.042.374.233.774.425.407.191.998.474 1.314.632.324.158.624.282.665.282.05 0 .266.092.482.208.217.117.699.325 1.082.458.374.125.998.357 1.389.499.989.366 2.32.782 3.202.998 1.788.432 2.536.599 3.201.707a24.96 24.96 0 011.996.391c.208.041.824.108 1.373.141.549.033 1.048.083 1.114.125.058.041.449.083.873.1.416.008 1.373.066 2.13.116 1.172.083 4.549.067 6.32-.033 1.298-.075 2.154-.158 2.371-.216.141-.042.773-.134 1.413-.208.641-.084 1.281-.183 1.414-.225.142-.05.491-.116.79-.15.3-.041.732-.116.957-.166.233-.05.848-.191 1.372-.308.857-.191 3.177-.79 4.158-1.073.658-.191 2.678-.998 3.66-1.463 2.445-1.156 5.772-2.978 6.944-3.801 1.406-.99 3.477-2.869 4.658-4.25 2.071-2.412 3.892-5.439 4.699-7.818.532-1.588.856-2.844.989-3.867.35-2.67.366-2.911.316-5.298-.049-2.245-.108-2.828-.424-4.682-.407-2.345-1.713-5.905-3.052-8.309-.732-1.305-1.505-2.378-2.453-3.368-1.248-1.306-1.971-1.68-3.244-1.68-2.512.017-5.032 1.855-5.173 3.776-.05.682.083 1.073.907 2.719 1.197 2.387 1.588 3.294 2.337 5.49 1.047 3.044 1.488 5.838 1.314 8.225-.133 1.78-.341 2.794-1.048 5.081-.632 2.021-1.763 4.317-2.978 6.03-1.28 1.788-2.378 2.919-4.474 4.591-1.971 1.572-3.086 2.295-5.265 3.401-3.443 1.739-5.505 2.437-8.258 2.778-1.031.133-6.995.233-7.169.125-.042-.025-.383-.058-.757-.083-.957-.058-1.955-.2-2.42-.341a2.641 2.641 0 00-.574-.117c-.283 0-1.871-.465-2.487-.731a3.835 3.835 0 00-.657-.208 4.699 4.699 0 01-.748-.291 6.53 6.53 0 00-.799-.35 3.287 3.287 0 01-.624-.299c-.158-.108-.349-.2-.424-.2-.075 0-.224-.066-.332-.149-.108-.084-.516-.316-.907-.508-.391-.199-.765-.407-.84-.474-.066-.066-.158-.116-.199-.116-.042 0-.159-.075-.258-.175a2.64 2.64 0 00-.441-.308c-.74-.407-3.036-2.362-4.175-3.551-.732-.765-1.938-2.287-2.678-3.368-.649-.948-.69-1.015-1.115-1.863a8.95 8.95 0 00-.482-.873 6.645 6.645 0 01-.358-.757 9.407 9.407 0 00-.332-.79c-.175-.358-.832-2.287-1.04-3.036-.357-1.306-.449-1.722-.673-3.077-.109-.624-.267-3.161-.25-3.909.033-1.455.1-2.537.183-2.745.042-.116.108-.49.133-.831.108-1.19.233-1.872.466-2.495.125-.35.324-1.007.449-1.472.116-.458.324-1.082.457-1.373.125-.282.258-.632.291-.765.034-.133.15-.374.267-.54.108-.158.199-.375.199-.474 0-.1.117-.316.25-.491.141-.175.249-.374.249-.449 0-.083.092-.266.208-.424.116-.158.208-.316.208-.358 0-.042.108-.225.233-.416.125-.191.266-.407.308-.482.074-.117.49-.724 1.014-1.489 1.031-1.48 3.701-4.225 4.907-5.048 1.031-.699 1.406-.907 3.526-1.921 2.753-1.314 4.483-1.813 8.392-2.404 1.098-.158 4.707-.183 6.03-.041 3.418.39 6.395 1.064 8.815 1.996.949.365 1.356.532 1.772.723.241.117.449.208.474.208.116 0 2.088.948 3.044 1.472 1.58.857 2.046.898 2.761.266.324-.274.391-.391.391-.624 0-.432-.308-.998-.865-1.596-.599-.641-2.769-2.396-3.884-3.136-2.57-1.721-6.728-3.06-11.103-3.576-1.114-.133-5.572-.158-6.686-.042z" fill="#6e1646" fill-rule="nonzero"/></svg>